<?xml version="1.0" encoding="utf-8" standalone="no"?>
<!DOCTYPE svg PUBLIC "-//W3C//DTD SVG 1.1//EN"
  "http://www.w3.org/Graphics/SVG/1.1/DTD/svg11.dtd">
<svg xmlns:xlink="http://www.w3.org/1999/xlink" width="434.978169pt" height="258.336pt" viewBox="0 0 434.978169 258.336" xmlns="http://www.w3.org/2000/svg" version="1.1">
 <metadata>
  <rdf:RDF xmlns:dc="http://purl.org/dc/elements/1.1/" xmlns:cc="http://creativecommons.org/ns#" xmlns:rdf="http://www.w3.org/1999/02/22-rdf-syntax-ns#">
   <cc:Work>
    <dc:type rdf:resource="http://purl.org/dc/dcmitype/StillImage"/>
    <dc:date>2026-08-24T17:03:41.812241</dc:date>
    <dc:format>image/svg+xml</dc:format>
    <dc:creator>
     <cc:Agent>
      <dc:title>Matplotlib v3.10.9, https://matplotlib.org/</dc:title>
     </cc:Agent>
    </dc:creator>
   </cc:Work>
  </rdf:RDF>
 </metadata>
 <defs>
  <style type="text/css">*{stroke-linejoin: round; stroke-linecap: butt}</style>
 </defs>
 <g id="figure_1">
  <g id="patch_1">
   <path d="M 0 258.336 
L 434.978169 258.336 
L 434.978169 0 
L 0 0 
z
" style="fill: #ffffff"/>
  </g>
  <g id="axes_1">
   <g id="patch_2">
    <path d="M 16.44048 110.140992 
L 96.39072 110.140992 
Q 102.41712 110.140992 102.41712 106.481952 
L 102.41712 51.840288 
Q 102.41712 48.181248 96.39072 48.181248 
L 16.44048 48.181248 
Q 10.41408 48.181248 10.41408 51.840288 
L 10.41408 106.481952 
Q 10.41408 110.140992 16.44048 110.140992 
z
" clip-path="url(#p1838d70ea1)" style="fill: #ffffff; stroke: #3b6fb6; stroke-width: 1.35; stroke-linejoin: miter"/>
   </g>
   <g id="patch_3">
    <path d="M 118.88928 110.140992 
L 198.83952 110.140992 
Q 204.86592 110.140992 204.86592 106.481952 
L 204.86592 51.840288 
Q 204.86592 48.181248 198.83952 48.181248 
L 118.88928 48.181248 
Q 112.86288 48.181248 112.86288 51.840288 
L 112.86288 106.481952 
Q 112.86288 110.140992 118.88928 110.140992 
z
" clip-path="url(#p1838d70ea1)" style="fill: #ffffff; stroke: #7a5195; stroke-width: 1.35; stroke-linejoin: miter"/>
   </g>
   <g id="patch_4">
    <path d="M 221.33808 110.140992 
L 301.28832 110.140992 
Q 307.31472 110.140992 307.31472 106.481952 
L 307.31472 51.840288 
Q 307.31472 48.181248 301.28832 48.181248 
L 221.33808 48.181248 
Q 215.31168 48.181248 215.31168 51.840288 
L 215.31168 106.481952 
Q 215.31168 110.140992 221.33808 110.140992 
z
" clip-path="url(#p1838d70ea1)" style="fill: #ffffff; stroke: #d55e00; stroke-width: 1.35; stroke-linejoin: miter"/>
   </g>
   <g id="patch_5">
    <path d="M 323.78688 110.140992 
L 399.71952 110.140992 
Q 405.74592 110.140992 405.74592 106.481952 
L 405.74592 51.840288 
Q 405.74592 48.181248 399.71952 48.181248 
L 323.78688 48.181248 
Q 317.76048 48.181248 317.76048 51.840288 
L 317.76048 106.481952 
Q 317.76048 110.140992 323.78688 110.140992 
z
" clip-path="url(#p1838d70ea1)" style="fill: #ffffff; stroke: #202124; stroke-width: 1.35; stroke-linejoin: miter"/>
   </g>
   <g id="patch_6">
    <path d="M 99.592049 79.16112 
Q 107.637578 79.16112 114.565074 79.16112 
" clip-path="url(#p1838d70ea1)" style="fill: none; stroke: #6b7280; stroke-linecap: round"/>
    <path d="M 110.565074 77.16112 
L 114.565074 79.16112 
L 110.565074 81.16112 
z
" clip-path="url(#p1838d70ea1)" style="fill: #6b7280; stroke: #6b7280; stroke-linecap: round"/>
   </g>
   <g id="patch_7">
    <path d="M 202.040849 79.16112 
Q 210.086378 79.16112 217.013874 79.16112 
" clip-path="url(#p1838d70ea1)" style="fill: none; stroke: #6b7280; stroke-linecap: round"/>
    <path d="M 213.013874 77.16112 
L 217.013874 79.16112 
L 213.013874 81.16112 
z
" clip-path="url(#p1838d70ea1)" style="fill: #6b7280; stroke: #6b7280; stroke-linecap: round"/>
   </g>
   <g id="patch_8">
    <path d="M 304.489649 79.16112 
Q 312.535178 79.16112 319.462674 79.16112 
" clip-path="url(#p1838d70ea1)" style="fill: none; stroke: #6b7280; stroke-linecap: round"/>
    <path d="M 315.462674 77.16112 
L 319.462674 79.16112 
L 315.462674 81.16112 
z
" clip-path="url(#p1838d70ea1)" style="fill: #6b7280; stroke: #6b7280; stroke-linecap: round"/>
   </g>
   <g id="patch_9">
    <path d="M 16.44048 227.230272 
L 96.39072 227.230272 
Q 102.41712 227.230272 102.41712 223.571232 
L 102.41712 168.929568 
Q 102.41712 165.270528 96.39072 165.270528 
L 16.44048 165.270528 
Q 10.41408 165.270528 10.41408 168.929568 
L 10.41408 223.571232 
Q 10.41408 227.230272 16.44048 227.230272 
z
" clip-path="url(#p1838d70ea1)" style="fill: #ffffff; stroke: #3b6fb6; stroke-width: 1.35; stroke-linejoin: miter"/>
   </g>
   <g id="patch_10">
    <path d="M 118.88928 227.230272 
L 198.83952 227.230272 
Q 204.86592 227.230272 204.86592 223.571232 
L 204.86592 168.929568 
Q 204.86592 165.270528 198.83952 165.270528 
L 118.88928 165.270528 
Q 112.86288 165.270528 112.86288 168.929568 
L 112.86288 223.571232 
Q 112.86288 227.230272 118.88928 227.230272 
z
" clip-path="url(#p1838d70ea1)" style="fill: #ffffff; stroke: #009e73; stroke-width: 1.35; stroke-linejoin: miter"/>
   </g>
   <g id="patch_11">
    <path d="M 221.33808 227.230272 
L 301.28832 227.230272 
Q 307.31472 227.230272 307.31472 223.571232 
L 307.31472 168.929568 
Q 307.31472 165.270528 301.28832 165.270528 
L 221.33808 165.270528 
Q 215.31168 165.270528 215.31168 168.929568 
L 215.31168 223.571232 
Q 215.31168 227.230272 221.33808 227.230272 
z
" clip-path="url(#p1838d70ea1)" style="fill: #ffffff; stroke: #7a5195; stroke-width: 1.35; stroke-linejoin: miter"/>
   </g>
   <g id="patch_12">
    <path d="M 323.78688 227.230272 
L 399.71952 227.230272 
Q 405.74592 227.230272 405.74592 223.571232 
L 405.74592 168.929568 
Q 405.74592 165.270528 399.71952 165.270528 
L 323.78688 165.270528 
Q 317.76048 165.270528 317.76048 168.929568 
L 317.76048 223.571232 
Q 317.76048 227.230272 323.78688 227.230272 
z
" clip-path="url(#p1838d70ea1)" style="fill: #ffffff; stroke: #202124; stroke-width: 1.35; stroke-linejoin: miter"/>
   </g>
   <g id="patch_13">
    <path d="M 99.592049 196.2504 
Q 107.637578 196.2504 114.565074 196.2504 
" clip-path="url(#p1838d70ea1)" style="fill: none; stroke: #6b7280; stroke-linecap: round"/>
    <path d="M 110.565074 194.2504 
L 114.565074 196.2504 
L 110.565074 198.2504 
z
" clip-path="url(#p1838d70ea1)" style="fill: #6b7280; stroke: #6b7280; stroke-linecap: round"/>
   </g>
   <g id="patch_14">
    <path d="M 202.040849 196.2504 
Q 210.086378 196.2504 217.013874 196.2504 
" clip-path="url(#p1838d70ea1)" style="fill: none; stroke: #6b7280; stroke-linecap: round"/>
    <path d="M 213.013874 194.2504 
L 217.013874 196.2504 
L 213.013874 198.2504 
z
" clip-path="url(#p1838d70ea1)" style="fill: #6b7280; stroke: #6b7280; stroke-linecap: round"/>
   </g>
   <g id="patch_15">
    <path d="M 304.489649 196.2504 
Q 312.535178 196.2504 319.462674 196.2504 
" clip-path="url(#p1838d70ea1)" style="fill: none; stroke: #6b7280; stroke-linecap: round"/>
    <path d="M 315.462674 194.2504 
L 319.462674 196.2504 
L 315.462674 198.2504 
z
" clip-path="url(#p1838d70ea1)" style="fill: #6b7280; stroke: #6b7280; stroke-linecap: round"/>
   </g>
   <g id="text_1">
    <text style="font-weight: 700; font-size: 11px; font-family: 'Arial'; text-anchor: start" x="15.2352" y="24.965096" transform="rotate(-0 15.2352 24.965096)">Chemical question: does an exact fluorination edit transfer between species?</text>
   </g>
   <g id="text_2">
    <text style="font-weight: 700; font-size: 8.2px; font-family: 'Arial'; fill: #3b6fb6" transform="translate(20.85984 65.615584)">Same-assay</text>
    <text style="font-weight: 700; font-size: 8.2px; font-family: 'Arial'; fill: #3b6fb6" transform="translate(20.85984 73.680386)">edits</text>
   </g>
   <g id="text_3">
    <text style="font-size: 7.2px; font-family: 'Arial'; fill: #202124" transform="translate(20.85984 84.33612)">HLM: 476 pairs</text>
    <text style="font-size: 7.2px; font-family: 'Arial'; fill: #202124" transform="translate(20.85984 92.49462)">RLM: 209 pairs</text>
    <text style="font-size: 7.2px; font-family: 'Arial'; fill: #202124" transform="translate(20.85984 100.625333)">Outcome-blind selection</text>
   </g>
   <g id="text_4">
    <text style="font-weight: 700; font-size: 8.2px; font-family: 'Arial'; fill: #7a5195" transform="translate(123.30864 65.615584)">Cross-species</text>
    <text style="font-weight: 700; font-size: 8.2px; font-family: 'Arial'; fill: #7a5195" transform="translate(123.30864 73.572761)">pairs</text>
   </g>
   <g id="text_5">
    <text style="font-size: 7.2px; font-family: 'Arial'; fill: #202124" transform="translate(123.30864 84.314745)">97 identical edits</text>
    <text style="font-size: 7.2px; font-family: 'Arial'; fill: #202124" transform="translate(123.30864 92.445458)">42 documents</text>
    <text style="font-size: 7.2px; font-family: 'Arial'; fill: #202124" transform="translate(123.30864 100.57617)">Raw-row audit</text>
   </g>
   <g id="text_6">
    <text style="font-weight: 700; font-size: 8.2px; font-family: 'Arial'; fill: #d55e00" transform="translate(225.75744 65.515646)">Transfer</text>
    <text style="font-weight: 700; font-size: 8.2px; font-family: 'Arial'; fill: #d55e00" transform="translate(225.75744 73.472824)">boundary</text>
   </g>
   <g id="text_7">
    <text style="font-size: 7.2px; font-family: 'Arial'; fill: #202124" transform="translate(225.75744 84.402495)">Spearman 0.431</text>
    <text style="font-size: 7.2px; font-family: 'Arial'; fill: #202124" transform="translate(225.75744 92.533208)">38.1% reversals</text>
    <text style="font-size: 7.2px; font-family: 'Arial'; fill: #202124" transform="translate(225.75744 100.777995)">Motifs exploratory</text>
   </g>
   <g id="text_8">
    <text style="font-weight: 700; font-size: 8.2px; font-family: 'Arial'; text-anchor: start; fill: #202124" x="328.20624" y="65.515646" transform="rotate(-0 328.20624 65.515646)">Decision</text>
   </g>
   <g id="text_9">
    <text style="font-size: 7.2px; font-family: 'Arial'; fill: #202124" transform="translate(328.20624 84.314745)">RLM edit SAR does</text>
    <text style="font-size: 7.2px; font-family: 'Arial'; fill: #202124" transform="translate(328.20624 92.445458)">not replace direct</text>
    <text style="font-size: 7.2px; font-family: 'Arial'; fill: #202124" transform="translate(328.20624 100.57617)">HLM measurement</text>
   </g>
   <g id="text_10">
    <text style="font-weight: 700; font-size: 11px; font-family: 'Arial'; text-anchor: start" x="15.2352" y="139.615016" transform="rotate(-0 15.2352 139.615016)">Prediction question: after RLM is measured, can HLM estimation be improved?</text>
   </g>
   <g id="text_11">
    <text style="font-weight: 700; font-size: 8.2px; font-family: 'Arial'; text-anchor: start; fill: #3b6fb6" x="20.85984" y="182.604926" transform="rotate(-0 20.85984 182.604926)">Paired data</text>
   </g>
   <g id="text_12">
    <text style="font-size: 7.2px; font-family: 'Arial'; fill: #202124" transform="translate(20.85984 201.491775)">3,049 HLM/RLM pairs</text>
    <text style="font-size: 7.2px; font-family: 'Arial'; fill: #202124" transform="translate(20.85984 209.622488)">557 fluorinated</text>
    <text style="font-size: 7.2px; font-family: 'Arial'; fill: #202124" transform="translate(20.85984 217.7532)">Five scaffold folds</text>
   </g>
   <g id="text_13">
    <text style="font-weight: 700; font-size: 8.2px; font-family: 'Arial'; fill: #009e73" transform="translate(123.30864 182.704864)">Competing</text>
    <text style="font-weight: 700; font-size: 8.2px; font-family: 'Arial'; fill: #009e73" transform="translate(123.30864 190.769666)">inputs</text>
   </g>
   <g id="text_14">
    <text style="font-size: 7.2px; font-family: 'Arial'; fill: #202124" transform="translate(123.30864 201.491775)">Structure only</text>
    <text style="font-size: 7.2px; font-family: 'Arial'; fill: #202124" transform="translate(123.30864 209.706862)">RLM-only linear</text>
    <text style="font-size: 7.2px; font-family: 'Arial'; fill: #202124" transform="translate(123.30864 217.92195)">RLM-anchored residual</text>
   </g>
   <g id="text_15">
    <text style="font-weight: 700; font-size: 8.2px; font-family: 'Arial'; fill: #7a5195" transform="translate(225.75744 182.604926)">Frozen external</text>
    <text style="font-weight: 700; font-size: 8.2px; font-family: 'Arial'; fill: #7a5195" transform="translate(225.75744 190.562104)">test</text>
   </g>
   <g id="text_16">
    <text style="font-size: 7.2px; font-family: 'Arial'; fill: #202124" transform="translate(225.75744 201.404025)">598 fluorinated</text>
    <text style="font-size: 7.2px; font-family: 'Arial'; fill: #202124" transform="translate(225.75744 209.534738)">174 documents</text>
    <text style="font-size: 7.2px; font-family: 'Arial'; fill: #202124" transform="translate(225.75744 217.66545)">Total CLint semantics</text>
   </g>
   <g id="text_17">
    <text style="font-weight: 700; font-size: 8.2px; font-family: 'Arial'; text-anchor: start; fill: #202124" x="328.20624" y="182.604926" transform="rotate(-0 328.20624 182.604926)">Use case</text>
   </g>
   <g id="text_18">
    <text style="font-size: 7.2px; font-family: 'Arial'; fill: #202124" transform="translate(328.20624 201.404025)">Refine absolute HLM</text>
    <text style="font-size: 7.2px; font-family: 'Arial'; fill: #202124" transform="translate(328.20624 209.648813)">CLint after quantitative</text>
    <text style="font-size: 7.2px; font-family: 'Arial'; fill: #202124" transform="translate(328.20624 217.779525)">RLM measurement</text>
   </g>
  </g>
 </g>
 <defs>
  <clipPath id="p1838d70ea1">
   <rect x="7.2" y="7.2" width="401.76" height="243.936"/>
  </clipPath>
 </defs>
</svg>
